<svg width="1200" height="217" viewBox="0 0 1200 217" fill="none" xmlns="http://www.w3.org/2000/svg">
<rect width="1200" height="217" fill="white"/>
<path d="M49.6257 19.8145L34.3918 157.892C33.7716 163.55 31.2409 168.837 27.2199 172.86L23.839 176.251C-10.4099 133.513 -7.7492 70.8599 31.7811 31.2115C36.6023 26.3858 41.7737 22.102 47.1851 18.3699C48.2854 17.6074 49.7657 18.4802 49.6157 19.8045L49.6257 19.8145Z" fill="#4BB14B"/>
<path d="M59.188 182.511L196.624 167.222C197.954 167.071 198.814 168.556 198.064 169.659C194.343 175.107 190.062 180.294 185.241 185.13C145.75 224.738 83.3743 227.427 40.7832 193.206L44.2741 189.704C48.2852 185.681 53.5565 183.143 59.198 182.511H59.188Z" fill="#4BB14B"/>
<path d="M79.5628 120.369L57.207 142.792L72.311 6.52073C72.381 5.91878 72.7911 5.3971 73.3612 5.20648C80.8732 2.61809 88.6352 0.882473 96.4672 0.00964655C97.4475 -0.100711 98.2777 0.752051 98.1677 1.73524L86.7347 105.381C86.1145 111.039 83.5839 116.326 79.5628 120.349V120.369Z" fill="#4BB14B"/>
<path d="M131.928 67.8703L109.572 90.293L119.405 1.46527C119.495 0.612513 120.265 -0.0195345 121.125 0.0807905C128.587 0.943585 135.969 2.58891 143.151 5.00674C143.851 5.23749 144.281 5.93977 144.201 6.67214L139.1 52.8918C138.48 58.5502 135.949 63.8373 131.928 67.8603V67.8703Z" fill="#4BB14B"/>
<path d="M199.054 52.3395L167.756 55.8208C163.685 56.2723 160.254 52.8211 160.704 48.7479L164.185 17.3662C164.315 16.2225 165.585 15.6005 166.555 16.2125C173.187 20.4362 179.449 25.4223 185.23 31.2312C191.012 37.0299 196.013 43.3303 200.204 49.9819C200.814 50.945 200.184 52.2292 199.044 52.3596L199.054 52.3395Z" fill="#4BB14B"/>
<path d="M214.898 97.2446L126.635 107.076L148.961 84.684C152.972 80.6609 158.243 78.1227 163.884 77.4907L209.716 72.3942C210.447 72.3139 211.137 72.7553 211.377 73.4476C213.787 80.6509 215.428 88.0348 216.288 95.519C216.388 96.3718 215.758 97.1443 214.908 97.2446H214.898Z" fill="#4BB14B"/>
<path d="M216.338 120.248C215.478 128.104 213.747 135.889 211.177 143.423C210.977 143.995 210.466 144.407 209.866 144.477L74.291 159.576L96.6168 137.203C100.628 133.18 105.889 130.642 111.531 130.02L214.617 118.553C215.598 118.442 216.448 119.275 216.338 120.258V120.248Z" fill="#4BB14B"/>
<path d="M49.6257 19.8145L34.3918 157.892C33.7716 163.55 31.2409 168.837 27.2199 172.86L23.839 176.251C-10.4099 133.513 -7.7492 70.8599 31.7811 31.2115C36.6023 26.3858 41.7737 22.102 47.1851 18.3699C48.2854 17.6074 49.7657 18.4802 49.6157 19.8045L49.6257 19.8145Z" fill="#4BB14B"/>
<path d="M59.188 182.511L196.624 167.222C197.954 167.071 198.814 168.556 198.064 169.659C194.343 175.107 190.062 180.294 185.241 185.13C145.75 224.738 83.3743 227.427 40.7832 193.206L44.2741 189.704C48.2852 185.681 53.5565 183.143 59.198 182.511H59.188Z" fill="#4BB14B"/>
<path d="M131.928 67.8703L109.572 90.293L119.405 1.46527C119.495 0.612513 120.265 -0.0195345 121.125 0.0807905C128.587 0.943585 135.969 2.58891 143.151 5.00674C143.851 5.23749 144.281 5.93977 144.201 6.67214L139.1 52.8918C138.48 58.5502 135.949 63.8373 131.928 67.8603V67.8703Z" fill="#4BB14B"/>
<path d="M199.054 52.3395L167.756 55.8208C163.685 56.2723 160.254 52.8211 160.704 48.7479L164.185 17.3662C164.315 16.2225 165.585 15.6005 166.555 16.2125C173.187 20.4362 179.449 25.4223 185.23 31.2312C191.012 37.0299 196.013 43.3303 200.204 49.9819C200.814 50.945 200.184 52.2292 199.044 52.3596L199.054 52.3395Z" fill="#4BB14B"/>
<path d="M214.898 97.2446L126.635 107.076L148.961 84.684C152.972 80.6609 158.243 78.1227 163.884 77.4907L209.716 72.3942C210.447 72.3139 211.137 72.7553 211.377 73.4476C213.787 80.6509 215.428 88.0348 216.288 95.519C216.388 96.3718 215.758 97.1443 214.908 97.2446H214.898Z" fill="#4BB14B"/>
<path d="M216.338 120.248C215.478 128.104 213.747 135.889 211.177 143.423C210.977 143.995 210.466 144.407 209.866 144.477L74.291 159.576L96.6168 137.203C100.628 133.18 105.889 130.642 111.531 130.02L214.617 118.553C215.598 118.442 216.448 119.275 216.338 120.258V120.248Z" fill="#4BB14B"/>
<path d="M395.258 131.315H417.364C418.104 131.315 418.644 132.037 418.434 132.739C405.781 175.016 348.316 186.132 311.296 167.562C288.63 155.995 276.197 134.465 276.367 108.651C276.207 82.7576 288.79 61.2379 311.296 49.6604C348.156 31.0903 405.931 42.2865 418.434 84.6537C418.644 85.3661 418.094 86.0784 417.364 86.0784H395.328C394.898 86.0784 394.518 85.8275 394.338 85.4363C390.157 76.4472 382.615 69.7154 372.762 65.7626C358.728 59.7732 336.213 60.2648 322.899 67.3778C307.245 75.3837 299.583 90.603 299.663 108.641C299.583 126.69 307.245 141.819 322.899 149.905C336.213 157.028 358.718 157.349 372.762 151.601C382.695 147.728 390.157 140.926 394.258 131.937C394.438 131.546 394.818 131.295 395.248 131.295L395.258 131.315Z" fill="#151515"/>
<path d="M488.632 44.2236L427.186 172.088C426.836 172.82 427.366 173.673 428.176 173.673H450.202C450.632 173.673 451.022 173.422 451.202 173.031L459.174 155.996C462.645 148.582 470.077 143.836 478.249 143.836H541.666L555.319 173.031C555.499 173.422 555.889 173.673 556.319 173.673H578.345C579.155 173.673 579.695 172.82 579.335 172.088L517.889 44.2236C517.709 43.8423 517.319 43.6016 516.899 43.6016H489.632C489.212 43.6016 488.822 43.8423 488.642 44.2236H488.632ZM473.698 124.935L503.256 61.7303L532.813 124.935H473.698Z" fill="#151515"/>
<path d="M714.1 147.799L639.401 52.2197C635.139 46.7721 628.628 43.5918 621.726 43.5918H603.891C603.281 43.5918 602.791 44.0834 602.791 44.6954V172.559C602.791 173.171 603.281 173.663 603.891 173.663H623.906C624.517 173.663 625.007 173.171 625.007 172.559V68.2316L700.396 165.015C704.648 170.473 711.179 173.673 718.091 173.673H735.205C735.816 173.673 736.306 173.182 736.306 172.57V44.6954C736.306 44.0834 735.816 43.5918 735.205 43.5918H715.19C714.58 43.5918 714.09 44.0834 714.09 44.6954V147.799H714.1Z" fill="#151515"/>
<path d="M872.922 49.6607C826.43 26.9171 757.922 49.3898 759.192 108.632C757.812 167.884 826.45 190.346 872.932 167.603C920.474 145.622 920.294 71.672 872.932 49.6607H872.922ZM878.823 133.613C861.429 163.449 806.305 163.269 788.7 133.613C784.529 126.56 782.448 118.233 782.448 108.632C781.588 79.1964 805.494 60.7667 833.842 61.6295C852.777 61.6094 869.411 67.98 878.814 83.6608C887.386 97.1445 887.386 120.129 878.814 133.613H878.823Z" fill="#151515"/>
<path d="M1025.44 48.7987C1018.38 45.3274 1009.99 43.5918 1000.26 43.5918H932.436C931.826 43.5918 931.336 44.0834 931.336 44.6954V172.559C931.336 173.171 931.826 173.663 932.436 173.663H953.152C953.762 173.663 954.252 173.171 954.252 172.559V139.753C954.252 132.048 960.484 125.798 968.166 125.798H1000.26C1009.99 125.798 1018.38 124.062 1025.44 120.591C1032.62 117.12 1038.11 112.324 1041.93 106.195C1045.88 99.9543 1047.84 92.7811 1047.84 84.6849C1047.84 76.5887 1045.88 69.4756 1041.93 63.3558C1038.11 57.1156 1032.62 52.2599 1025.44 48.7886V48.7987ZM1017.81 100.305C1013.41 104.118 1007.28 106.034 999.404 106.034H954.262V63.3658H999.404C1007.28 63.3658 1013.41 65.272 1017.81 69.0944C1022.32 72.9067 1024.58 78.1136 1024.58 84.705C1024.58 91.2963 1022.32 96.5032 1017.81 100.316V100.305Z" fill="#151515"/>
<path d="M1198.89 43.5918H1175.85C1175.51 43.5918 1175.2 43.7423 1174.99 44.0031L1128.35 102.462L1081.72 44.0031C1081.51 43.7423 1081.19 43.5918 1080.86 43.5918H1057.81C1056.88 43.5918 1056.37 44.6653 1056.95 45.3876L1110.76 112.786C1114.79 117.832 1116.98 124.103 1116.98 130.563V172.559C1116.98 173.171 1117.47 173.663 1118.09 173.663H1138.8C1139.41 173.663 1139.9 173.171 1139.9 172.559V130.383C1139.9 123.922 1142.09 117.652 1146.12 112.605L1199.76 45.3876C1200.34 44.6653 1199.82 43.5918 1198.9 43.5918H1198.89Z" fill="#151515"/>
</svg>
